<?xml version="1.0" encoding="UTF-8" standalone="no"?>
<!DOCTYPE svg PUBLIC "-//W3C//DTD SVG 1.1//EN"
 "http://www.w3.org/Graphics/SVG/1.1/DTD/svg11.dtd">
<!-- Generated by graphviz version 2.40.1 (20161225.0304)
 -->
<!-- Title: dependencies Pages: 1 -->
<svg width="1043pt" height="290pt"
 viewBox="0.00 0.00 1043.00 290.00" xmlns="http://www.w3.org/2000/svg" xmlns:xlink="http://www.w3.org/1999/xlink">
<g id="graph0" class="graph" transform="scale(1 1) rotate(0) translate(4 286)">
<title>dependencies</title>
<polygon fill="#ffffff" stroke="transparent" points="-4,4 -4,-286 1039,-286 1039,4 -4,4"/>
<text text-anchor="start" x="496.5091" y="-42.4" font-family="sans-serif" font-weight="bold" font-size="14.00" fill="#000000">Legend</text>
<polygon fill="#ffffb3" stroke="transparent" points="283.5,-10 283.5,-30 303.5,-30 303.5,-10 283.5,-10"/>
<text text-anchor="start" x="307.129" y="-15.4" font-family="sans-serif" font-size="14.00" fill="#000000"> &#160;Declarations</text>
<polygon fill="#8dd3c7" stroke="transparent" points="396.5,-10 396.5,-30 416.5,-30 416.5,-10 396.5,-10"/>
<text text-anchor="start" x="420.2251" y="-15.4" font-family="sans-serif" font-size="14.00" fill="#000000"> &#160;Module</text>
<polygon fill="#80b1d3" stroke="transparent" points="482.5,-10 482.5,-30 502.5,-30 502.5,-10 482.5,-10"/>
<text text-anchor="start" x="506.2812" y="-15.4" font-family="sans-serif" font-size="14.00" fill="#000000"> &#160;Bootstrap</text>
<polygon fill="#fdb462" stroke="transparent" points="579.5,-10 579.5,-30 599.5,-30 599.5,-10 579.5,-10"/>
<text text-anchor="start" x="603.1732" y="-15.4" font-family="sans-serif" font-size="14.00" fill="#000000"> &#160;Providers</text>
<polygon fill="#fb8072" stroke="transparent" points="675.5,-10 675.5,-30 695.5,-30 695.5,-10 675.5,-10"/>
<text text-anchor="start" x="699.2258" y="-15.4" font-family="sans-serif" font-size="14.00" fill="#000000"> &#160;Exports</text>
<g id="clust1" class="cluster">
<title>cluster_AppModule</title>
<polygon fill="none" stroke="#000000" stroke-dasharray="1,5" points="8,-70 8,-274 354,-274 354,-70 8,-70"/>
</g>
<g id="clust2" class="cluster">
<title>cluster_AppModule_declarations</title>
<polygon fill="none" stroke="#000000" points="16,-78 16,-130 138,-130 138,-78 16,-78"/>
</g>
<g id="clust4" class="cluster">
<title>cluster_AppModule_imports</title>
<polygon fill="none" stroke="#000000" points="146,-78 146,-130 346,-130 346,-78 146,-78"/>
</g>
<g id="clust6" class="cluster">
<title>cluster_AppModule_bootstrap</title>
<polygon fill="none" stroke="#000000" points="100,-214 100,-266 224,-266 224,-214 100,-214"/>
</g>
<g id="clust8" class="cluster">
<title>cluster_NgxBadPhoneSpinnerModule</title>
<polygon fill="none" stroke="#000000" stroke-dasharray="1,5" points="362,-138 362,-206 1027,-206 1027,-138 362,-138"/>
</g>
<g id="clust9" class="cluster">
<title>cluster_NgxBadPhoneSpinnerModule_declarations</title>
<polygon fill="none" stroke="#000000" points="702,-146 702,-198 1019,-198 1019,-146 702,-146"/>
</g>
<g id="clust13" class="cluster">
<title>cluster_NgxBadPhoneSpinnerModule_exports</title>
<polygon fill="none" stroke="#000000" points="370,-146 370,-198 694,-198 694,-146 370,-146"/>
</g>
<!-- AppComponent -->
<g id="node1" class="node">
<title>AppComponent</title>
<polygon fill="#ffffb3" stroke="#000000" points="129.9399,-122 24.0601,-122 24.0601,-86 129.9399,-86 129.9399,-122"/>
<text text-anchor="middle" x="77" y="-99.8" font-family="Times,serif" font-size="14.00" fill="#000000">AppComponent</text>
</g>
<!-- AppModule -->
<g id="node2" class="node">
<title>AppModule</title>
<polygon fill="#8dd3c7" stroke="#000000" points="203.6571,-190 200.6571,-194 179.6571,-194 176.6571,-190 120.3429,-190 120.3429,-154 203.6571,-154 203.6571,-190"/>
<text text-anchor="middle" x="162" y="-167.8" font-family="Times,serif" font-size="14.00" fill="#000000">AppModule</text>
</g>
<!-- AppComponent&#45;&gt;AppModule -->
<g id="edge1" class="edge">
<title>AppComponent&#45;&gt;AppModule</title>
<path fill="none" stroke="#000000" d="M124.9457,-122.2228C124.9457,-122.2228 124.9457,-143.7269 124.9457,-143.7269"/>
<polygon fill="#000000" stroke="#000000" points="121.4457,-143.7269 124.9457,-153.7269 128.4457,-143.727 121.4457,-143.7269"/>
</g>
<!-- AppComponent  -->
<g id="node4" class="node">
<title>AppComponent </title>
<polygon fill="#80b1d3" stroke="#000000" points="216.439,-258 107.561,-258 107.561,-222 216.439,-222 216.439,-258"/>
<text text-anchor="middle" x="162" y="-235.8" font-family="Times,serif" font-size="14.00" fill="#000000">AppComponent </text>
</g>
<!-- AppModule&#45;&gt;AppComponent  -->
<g id="edge3" class="edge">
<title>AppModule&#45;&gt;AppComponent </title>
<path fill="none" stroke="#000000" stroke-dasharray="1,5" d="M162,-190.2228C162,-190.2228 162,-211.7269 162,-211.7269"/>
<polygon fill="#000000" stroke="#000000" points="158.5001,-211.7269 162,-221.7269 165.5001,-211.727 158.5001,-211.7269"/>
</g>
<!-- NgxBadPhoneSpinnerModule -->
<g id="node3" class="node">
<title>NgxBadPhoneSpinnerModule</title>
<polygon fill="#8dd3c7" stroke="#000000" points="338.2534,-122 335.2534,-126 314.2534,-126 311.2534,-122 153.7466,-122 153.7466,-86 338.2534,-86 338.2534,-122"/>
<text text-anchor="middle" x="246" y="-99.8" font-family="Times,serif" font-size="14.00" fill="#000000">NgxBadPhoneSpinnerModule</text>
</g>
<!-- NgxBadPhoneSpinnerModule&#45;&gt;AppModule -->
<g id="edge2" class="edge">
<title>NgxBadPhoneSpinnerModule&#45;&gt;AppModule</title>
<path fill="none" stroke="#000000" d="M178.7258,-122.2228C178.7258,-122.2228 178.7258,-143.7269 178.7258,-143.7269"/>
<polygon fill="#000000" stroke="#000000" points="175.2259,-143.7269 178.7258,-153.7269 182.2259,-143.727 175.2259,-143.7269"/>
</g>
<!-- NgxPhoneSpinnerComponent  -->
<g id="node7" class="node">
<title>NgxPhoneSpinnerComponent </title>
<polygon fill="#fb8072" stroke="#000000" points="686.0358,-190 475.9642,-190 475.9642,-154 686.0358,-154 686.0358,-190"/>
<text text-anchor="middle" x="581" y="-167.8" font-family="Times,serif" font-size="14.00" fill="#000000">NgxPhoneSpinnerComponent </text>
</g>
<!-- NgxBadPhoneSpinnerModule&#45;&gt;NgxPhoneSpinnerComponent  -->
<g id="edge6" class="edge">
<title>NgxBadPhoneSpinnerModule&#45;&gt;NgxPhoneSpinnerComponent </title>
<path fill="none" stroke="#000000" stroke-dasharray="5,2" d="M338.427,-108C437.585,-108 581,-108 581,-108 581,-108 581,-143.8314 581,-143.8314"/>
<polygon fill="#000000" stroke="#000000" points="577.5001,-143.8313 581,-153.8314 584.5001,-143.8314 577.5001,-143.8313"/>
</g>
<!-- RangePipe  -->
<g id="node8" class="node">
<title>RangePipe </title>
<polygon fill="#fb8072" stroke="#000000" points="458.1537,-190 377.8463,-190 377.8463,-154 458.1537,-154 458.1537,-190"/>
<text text-anchor="middle" x="418" y="-167.8" font-family="Times,serif" font-size="14.00" fill="#000000">RangePipe </text>
</g>
<!-- NgxBadPhoneSpinnerModule&#45;&gt;RangePipe  -->
<g id="edge7" class="edge">
<title>NgxBadPhoneSpinnerModule&#45;&gt;RangePipe </title>
<path fill="none" stroke="#000000" stroke-dasharray="5,2" d="M338.2938,-115C379.0967,-115 418,-115 418,-115 418,-115 418,-143.9648 418,-143.9648"/>
<polygon fill="#000000" stroke="#000000" points="414.5001,-143.9648 418,-153.9648 421.5001,-143.9649 414.5001,-143.9648"/>
</g>
<!-- NgxPhoneSpinnerComponent -->
<g id="node5" class="node">
<title>NgxPhoneSpinnerComponent</title>
<polygon fill="#ffffb3" stroke="#000000" points="1011.0363,-190 804.9637,-190 804.9637,-154 1011.0363,-154 1011.0363,-190"/>
<text text-anchor="middle" x="908" y="-167.8" font-family="Times,serif" font-size="14.00" fill="#000000">NgxPhoneSpinnerComponent</text>
</g>
<!-- NgxPhoneSpinnerComponent&#45;&gt;NgxBadPhoneSpinnerModule -->
<g id="edge4" class="edge">
<title>NgxPhoneSpinnerComponent&#45;&gt;NgxBadPhoneSpinnerModule</title>
<path fill="none" stroke="#000000" d="M908,-153.9092C908,-130.8672 908,-94 908,-94 908,-94 348.3965,-94 348.3965,-94"/>
<polygon fill="#000000" stroke="#000000" points="348.3966,-90.5001 338.3965,-94 348.3965,-97.5001 348.3966,-90.5001"/>
</g>
<!-- RangePipe -->
<g id="node6" class="node">
<title>RangePipe</title>
<polygon fill="#ffffb3" stroke="#000000" points="786.1544,-190 709.8456,-190 709.8456,-154 786.1544,-154 786.1544,-190"/>
<text text-anchor="middle" x="748" y="-167.8" font-family="Times,serif" font-size="14.00" fill="#000000">RangePipe</text>
</g>
<!-- RangePipe&#45;&gt;NgxBadPhoneSpinnerModule -->
<g id="edge5" class="edge">
<title>RangePipe&#45;&gt;NgxBadPhoneSpinnerModule</title>
<path fill="none" stroke="#000000" d="M748,-153.7157C748,-132.6789 748,-101 748,-101 748,-101 348.3669,-101 348.3669,-101"/>
<polygon fill="#000000" stroke="#000000" points="348.3669,-97.5001 338.3669,-101 348.3668,-104.5001 348.3669,-97.5001"/>
</g>
</g>
</svg>
