<?xml version="1.0" encoding="UTF-8" standalone="no"?>
<!DOCTYPE svg PUBLIC "-//W3C//DTD SVG 1.1//EN"
 "http://www.w3.org/Graphics/SVG/1.1/DTD/svg11.dtd">
<!-- Generated by graphviz version 2.40.1 (20161225.0304)
 -->
<!-- Title: dependencies Pages: 1 -->
<svg width="591pt" height="360pt"
 viewBox="0.00 0.00 591.00 360.00" xmlns="http://www.w3.org/2000/svg" xmlns:xlink="http://www.w3.org/1999/xlink">
<g id="graph0" class="graph" transform="scale(1 1) rotate(0) translate(4 356)">
<title>dependencies</title>
<polygon fill="#ffffff" stroke="transparent" points="-4,4 -4,-356 587,-356 587,4 -4,4"/>
<text text-anchor="start" x="270.5091" y="-42.4" font-family="sans-serif" font-weight="bold" font-size="14.00" fill="#000000">Legend</text>
<polygon fill="#ffffb3" stroke="transparent" points="57.5,-10 57.5,-30 77.5,-30 77.5,-10 57.5,-10"/>
<text text-anchor="start" x="81.129" y="-15.4" font-family="sans-serif" font-size="14.00" fill="#000000"> &#160;Declarations</text>
<polygon fill="#8dd3c7" stroke="transparent" points="170.5,-10 170.5,-30 190.5,-30 190.5,-10 170.5,-10"/>
<text text-anchor="start" x="194.2251" y="-15.4" font-family="sans-serif" font-size="14.00" fill="#000000"> &#160;Module</text>
<polygon fill="#80b1d3" stroke="transparent" points="256.5,-10 256.5,-30 276.5,-30 276.5,-10 256.5,-10"/>
<text text-anchor="start" x="280.2812" y="-15.4" font-family="sans-serif" font-size="14.00" fill="#000000"> &#160;Bootstrap</text>
<polygon fill="#fdb462" stroke="transparent" points="353.5,-10 353.5,-30 373.5,-30 373.5,-10 353.5,-10"/>
<text text-anchor="start" x="377.1732" y="-15.4" font-family="sans-serif" font-size="14.00" fill="#000000"> &#160;Providers</text>
<polygon fill="#fb8072" stroke="transparent" points="449.5,-10 449.5,-30 469.5,-30 469.5,-10 449.5,-10"/>
<text text-anchor="start" x="473.2258" y="-15.4" font-family="sans-serif" font-size="14.00" fill="#000000"> &#160;Exports</text>
<g id="clust1" class="cluster">
<title>cluster_AppModule</title>
<polygon fill="none" stroke="#000000" stroke-dasharray="1,5" points="188,-146 188,-344 534,-344 534,-146 188,-146"/>
</g>
<g id="clust2" class="cluster">
<title>cluster_AppModule_declarations</title>
<polygon fill="none" stroke="#000000" points="404,-154 404,-206 526,-206 526,-154 404,-154"/>
</g>
<g id="clust4" class="cluster">
<title>cluster_AppModule_imports</title>
<polygon fill="none" stroke="#000000" points="196,-154 196,-206 396,-206 396,-154 196,-154"/>
</g>
<g id="clust6" class="cluster">
<title>cluster_AppModule_bootstrap</title>
<polygon fill="none" stroke="#000000" points="318,-284 318,-336 442,-336 442,-284 318,-284"/>
</g>
<g id="clust8" class="cluster">
<title>cluster_NgxBadPhoneSpinnerModule</title>
<polygon fill="none" stroke="#000000" stroke-dasharray="1,5" points="8,-70 8,-138 575,-138 575,-70 8,-70"/>
</g>
<g id="clust9" class="cluster">
<title>cluster_NgxBadPhoneSpinnerModule_declarations</title>
<polygon fill="none" stroke="#000000" points="250,-78 250,-130 567,-130 567,-78 250,-78"/>
</g>
<g id="clust13" class="cluster">
<title>cluster_NgxBadPhoneSpinnerModule_exports</title>
<polygon fill="none" stroke="#000000" points="16,-78 16,-130 242,-130 242,-78 16,-78"/>
</g>
<!-- AppComponent -->
<g id="node1" class="node">
<title>AppComponent</title>
<polygon fill="#ffffb3" stroke="#000000" points="517.9399,-198 412.0601,-198 412.0601,-162 517.9399,-162 517.9399,-198"/>
<text text-anchor="middle" x="465" y="-175.8" font-family="Times,serif" font-size="14.00" fill="#000000">AppComponent</text>
</g>
<!-- AppModule -->
<g id="node2" class="node">
<title>AppModule</title>
<polygon fill="#8dd3c7" stroke="#000000" points="421.6571,-263 418.6571,-267 397.6571,-267 394.6571,-263 338.3429,-263 338.3429,-227 421.6571,-227 421.6571,-263"/>
<text text-anchor="middle" x="380" y="-240.8" font-family="Times,serif" font-size="14.00" fill="#000000">AppModule</text>
</g>
<!-- AppComponent&#45;&gt;AppModule -->
<g id="edge1" class="edge">
<title>AppComponent&#45;&gt;AppModule</title>
<path fill="none" stroke="#000000" d="M418.6456,-198.1061C418.6456,-198.1061 418.6456,-216.991 418.6456,-216.991"/>
<polygon fill="#000000" stroke="#000000" points="415.1457,-216.9909 418.6456,-226.991 422.1457,-216.991 415.1457,-216.9909"/>
</g>
<!-- AppComponent&#45;&gt;AppModule -->
<g id="edge4" class="edge">
<title>AppComponent&#45;&gt;AppModule</title>
<path fill="none" stroke="#000000" d="M415.4631,-198.1061C415.4631,-198.1061 415.4631,-216.991 415.4631,-216.991"/>
<polygon fill="#000000" stroke="#000000" points="411.9632,-216.9909 415.4631,-226.991 418.9632,-216.991 411.9632,-216.9909"/>
</g>
<!-- AppComponent  -->
<g id="node4" class="node">
<title>AppComponent </title>
<polygon fill="#80b1d3" stroke="#000000" points="434.439,-328 325.561,-328 325.561,-292 434.439,-292 434.439,-328"/>
<text text-anchor="middle" x="380" y="-305.8" font-family="Times,serif" font-size="14.00" fill="#000000">AppComponent </text>
</g>
<!-- AppModule&#45;&gt;AppComponent  -->
<g id="edge3" class="edge">
<title>AppModule&#45;&gt;AppComponent </title>
<path fill="none" stroke="#000000" stroke-dasharray="1,5" d="M366.0573,-263.1061C366.0573,-263.1061 366.0573,-281.991 366.0573,-281.991"/>
<polygon fill="#000000" stroke="#000000" points="362.5574,-281.9909 366.0573,-291.991 369.5574,-281.991 362.5574,-281.9909"/>
</g>
<!-- AppModule&#45;&gt;AppComponent  -->
<g id="edge6" class="edge">
<title>AppModule&#45;&gt;AppComponent </title>
<path fill="none" stroke="#000000" stroke-dasharray="1,5" d="M393.9427,-263.1061C393.9427,-263.1061 393.9427,-281.991 393.9427,-281.991"/>
<polygon fill="#000000" stroke="#000000" points="390.4428,-281.9909 393.9427,-291.991 397.4428,-281.991 390.4428,-281.9909"/>
</g>
<!-- NgxBadPhoneSpinnerModule -->
<g id="node3" class="node">
<title>NgxBadPhoneSpinnerModule</title>
<polygon fill="#8dd3c7" stroke="#000000" points="388.2534,-198 385.2534,-202 364.2534,-202 361.2534,-198 203.7466,-198 203.7466,-162 388.2534,-162 388.2534,-198"/>
<text text-anchor="middle" x="296" y="-175.8" font-family="Times,serif" font-size="14.00" fill="#000000">NgxBadPhoneSpinnerModule</text>
</g>
<!-- NgxBadPhoneSpinnerModule&#45;&gt;AppModule -->
<g id="edge2" class="edge">
<title>NgxBadPhoneSpinnerModule&#45;&gt;AppModule</title>
<path fill="none" stroke="#000000" d="M354.9067,-198.1061C354.9067,-198.1061 354.9067,-216.991 354.9067,-216.991"/>
<polygon fill="#000000" stroke="#000000" points="351.4068,-216.9909 354.9067,-226.991 358.4068,-216.991 351.4068,-216.9909"/>
</g>
<!-- NgxBadPhoneSpinnerModule&#45;&gt;AppModule -->
<g id="edge5" class="edge">
<title>NgxBadPhoneSpinnerModule&#45;&gt;AppModule</title>
<path fill="none" stroke="#000000" d="M371.6417,-198.1061C371.6417,-198.1061 371.6417,-216.991 371.6417,-216.991"/>
<polygon fill="#000000" stroke="#000000" points="368.1418,-216.9909 371.6417,-226.991 375.1418,-216.991 368.1418,-216.9909"/>
</g>
<!-- NgxBadPhoneSpinnerComponent  -->
<g id="node7" class="node">
<title>NgxBadPhoneSpinnerComponent </title>
<polygon fill="#fb8072" stroke="#000000" points="234.0358,-122 23.9642,-122 23.9642,-86 234.0358,-86 234.0358,-122"/>
<text text-anchor="middle" x="129" y="-99.8" font-family="Times,serif" font-size="14.00" fill="#000000">NgxBadPhoneSpinnerComponent </text>
</g>
<!-- NgxBadPhoneSpinnerModule&#45;&gt;NgxBadPhoneSpinnerComponent  -->
<g id="edge9" class="edge">
<title>NgxBadPhoneSpinnerModule&#45;&gt;NgxBadPhoneSpinnerComponent </title>
<path fill="none" stroke="#000000" stroke-dasharray="5,2" d="M218.8207,-161.9891C218.8207,-161.9891 218.8207,-132.145 218.8207,-132.145"/>
<polygon fill="#000000" stroke="#000000" points="222.3207,-132.145 218.8207,-122.145 215.3207,-132.1451 222.3207,-132.145"/>
</g>
<!-- NgxBadPhoneSpinnerComponent -->
<g id="node5" class="node">
<title>NgxBadPhoneSpinnerComponent</title>
<polygon fill="#ffffb3" stroke="#000000" points="559.0363,-122 352.9637,-122 352.9637,-86 559.0363,-86 559.0363,-122"/>
<text text-anchor="middle" x="456" y="-99.8" font-family="Times,serif" font-size="14.00" fill="#000000">NgxBadPhoneSpinnerComponent</text>
</g>
<!-- NgxBadPhoneSpinnerComponent&#45;&gt;NgxBadPhoneSpinnerModule -->
<g id="edge7" class="edge">
<title>NgxBadPhoneSpinnerComponent&#45;&gt;NgxBadPhoneSpinnerModule</title>
<path fill="none" stroke="#000000" d="M370.5544,-122.0109C370.5544,-122.0109 370.5544,-151.855 370.5544,-151.855"/>
<polygon fill="#000000" stroke="#000000" points="367.0544,-151.8549 370.5544,-161.855 374.0544,-151.855 367.0544,-151.8549"/>
</g>
<!-- RangePipe -->
<g id="node6" class="node">
<title>RangePipe</title>
<polygon fill="#ffffb3" stroke="#000000" points="334.1544,-122 257.8456,-122 257.8456,-86 334.1544,-86 334.1544,-122"/>
<text text-anchor="middle" x="296" y="-99.8" font-family="Times,serif" font-size="14.00" fill="#000000">RangePipe</text>
</g>
<!-- RangePipe&#45;&gt;NgxBadPhoneSpinnerModule -->
<g id="edge8" class="edge">
<title>RangePipe&#45;&gt;NgxBadPhoneSpinnerModule</title>
<path fill="none" stroke="#000000" d="M296,-122.0109C296,-122.0109 296,-151.855 296,-151.855"/>
<polygon fill="#000000" stroke="#000000" points="292.5001,-151.8549 296,-161.855 299.5001,-151.855 292.5001,-151.8549"/>
</g>
</g>
</svg>
