<?xml version="1.0" encoding="UTF-8" standalone="no"?>
<!DOCTYPE svg PUBLIC "-//W3C//DTD SVG 1.1//EN"
 "http://www.w3.org/Graphics/SVG/1.1/DTD/svg11.dtd">
<!-- Generated by graphviz version 2.40.1 (20161225.0304)
 -->
<!-- Title: dependencies Pages: 1 -->
<svg width="504pt" height="284pt"
 viewBox="0.00 0.00 504.00 284.00" xmlns="http://www.w3.org/2000/svg" xmlns:xlink="http://www.w3.org/1999/xlink">
<g id="graph0" class="graph" transform="scale(1 1) rotate(0) translate(4 280)">
<title>dependencies</title>
<polygon fill="#ffffff" stroke="transparent" points="-4,4 -4,-280 500,-280 500,4 -4,4"/>
<text text-anchor="start" x="227.0091" y="-42.4" font-family="sans-serif" font-weight="bold" font-size="14.00" fill="#000000">Legend</text>
<polygon fill="#ffffb3" stroke="transparent" points="14,-10 14,-30 34,-30 34,-10 14,-10"/>
<text text-anchor="start" x="37.629" y="-15.4" font-family="sans-serif" font-size="14.00" fill="#000000"> &#160;Declarations</text>
<polygon fill="#8dd3c7" stroke="transparent" points="127,-10 127,-30 147,-30 147,-10 127,-10"/>
<text text-anchor="start" x="150.7251" y="-15.4" font-family="sans-serif" font-size="14.00" fill="#000000"> &#160;Module</text>
<polygon fill="#80b1d3" stroke="transparent" points="213,-10 213,-30 233,-30 233,-10 213,-10"/>
<text text-anchor="start" x="236.7812" y="-15.4" font-family="sans-serif" font-size="14.00" fill="#000000"> &#160;Bootstrap</text>
<polygon fill="#fdb462" stroke="transparent" points="310,-10 310,-30 330,-30 330,-10 310,-10"/>
<text text-anchor="start" x="333.6732" y="-15.4" font-family="sans-serif" font-size="14.00" fill="#000000"> &#160;Providers</text>
<polygon fill="#fb8072" stroke="transparent" points="406,-10 406,-30 426,-30 426,-10 406,-10"/>
<text text-anchor="start" x="429.7258" y="-15.4" font-family="sans-serif" font-size="14.00" fill="#000000"> &#160;Exports</text>
<g id="clust1" class="cluster">
<title>cluster_AppModule</title>
<polygon fill="none" stroke="#000000" stroke-dasharray="1,5" points="15,-70 15,-268 155,-268 155,-70 15,-70"/>
</g>
<g id="clust2" class="cluster">
<title>cluster_AppModule_declarations</title>
<polygon fill="none" stroke="#000000" points="24,-78 24,-130 146,-130 146,-78 24,-78"/>
</g>
<g id="clust6" class="cluster">
<title>cluster_AppModule_bootstrap</title>
<polygon fill="none" stroke="#000000" points="23,-208 23,-260 147,-260 147,-208 23,-208"/>
</g>
<g id="clust8" class="cluster">
<title>cluster_NgxPhoneSpinnerModule</title>
<polygon fill="none" stroke="#000000" stroke-dasharray="1,5" points="163,-70 163,-268 481,-268 481,-70 163,-70"/>
</g>
<g id="clust9" class="cluster">
<title>cluster_NgxPhoneSpinnerModule_declarations</title>
<polygon fill="none" stroke="#000000" points="175,-78 175,-130 469,-130 469,-78 175,-78"/>
</g>
<g id="clust13" class="cluster">
<title>cluster_NgxPhoneSpinnerModule_exports</title>
<polygon fill="none" stroke="#000000" points="171,-208 171,-260 473,-260 473,-208 171,-208"/>
</g>
<!-- AppComponent -->
<g id="node1" class="node">
<title>AppComponent</title>
<polygon fill="#ffffb3" stroke="#000000" points="137.9399,-122 32.0601,-122 32.0601,-86 137.9399,-86 137.9399,-122"/>
<text text-anchor="middle" x="85" y="-99.8" font-family="Times,serif" font-size="14.00" fill="#000000">AppComponent</text>
</g>
<!-- AppModule -->
<g id="node2" class="node">
<title>AppModule</title>
<polygon fill="#8dd3c7" stroke="#000000" points="126.6571,-187 123.6571,-191 102.6571,-191 99.6571,-187 43.3429,-187 43.3429,-151 126.6571,-151 126.6571,-187"/>
<text text-anchor="middle" x="85" y="-164.8" font-family="Times,serif" font-size="14.00" fill="#000000">AppModule</text>
</g>
<!-- AppComponent&#45;&gt;AppModule -->
<g id="edge1" class="edge">
<title>AppComponent&#45;&gt;AppModule</title>
<path fill="none" stroke="#000000" d="M85,-122.1061C85,-122.1061 85,-140.991 85,-140.991"/>
<polygon fill="#000000" stroke="#000000" points="81.5001,-140.9909 85,-150.991 88.5001,-140.991 81.5001,-140.9909"/>
</g>
<!-- AppComponent  -->
<g id="node3" class="node">
<title>AppComponent </title>
<polygon fill="#80b1d3" stroke="#000000" points="139.439,-252 30.561,-252 30.561,-216 139.439,-216 139.439,-252"/>
<text text-anchor="middle" x="85" y="-229.8" font-family="Times,serif" font-size="14.00" fill="#000000">AppComponent </text>
</g>
<!-- AppModule&#45;&gt;AppComponent  -->
<g id="edge2" class="edge">
<title>AppModule&#45;&gt;AppComponent </title>
<path fill="none" stroke="#000000" stroke-dasharray="1,5" d="M85,-187.1061C85,-187.1061 85,-205.991 85,-205.991"/>
<polygon fill="#000000" stroke="#000000" points="81.5001,-205.9909 85,-215.991 88.5001,-205.991 81.5001,-205.9909"/>
</g>
<!-- NgxPhoneSpinnerComponent -->
<g id="node4" class="node">
<title>NgxPhoneSpinnerComponent</title>
<polygon fill="#ffffb3" stroke="#000000" points="460.9846,-122 277.0154,-122 277.0154,-86 460.9846,-86 460.9846,-122"/>
<text text-anchor="middle" x="369" y="-99.8" font-family="Times,serif" font-size="14.00" fill="#000000">NgxPhoneSpinnerComponent</text>
</g>
<!-- NgxPhoneSpinnerModule -->
<g id="node6" class="node">
<title>NgxPhoneSpinnerModule</title>
<polygon fill="#8dd3c7" stroke="#000000" points="389.2021,-187 386.2021,-191 365.2021,-191 362.2021,-187 226.7979,-187 226.7979,-151 389.2021,-151 389.2021,-187"/>
<text text-anchor="middle" x="308" y="-164.8" font-family="Times,serif" font-size="14.00" fill="#000000">NgxPhoneSpinnerModule</text>
</g>
<!-- NgxPhoneSpinnerComponent&#45;&gt;NgxPhoneSpinnerModule -->
<g id="edge3" class="edge">
<title>NgxPhoneSpinnerComponent&#45;&gt;NgxPhoneSpinnerModule</title>
<path fill="none" stroke="#000000" d="M333.0544,-122.1061C333.0544,-122.1061 333.0544,-140.991 333.0544,-140.991"/>
<polygon fill="#000000" stroke="#000000" points="329.5544,-140.9909 333.0544,-150.991 336.5544,-140.991 329.5544,-140.9909"/>
</g>
<!-- RangePipe -->
<g id="node5" class="node">
<title>RangePipe</title>
<polygon fill="#ffffb3" stroke="#000000" points="259.1544,-122 182.8456,-122 182.8456,-86 259.1544,-86 259.1544,-122"/>
<text text-anchor="middle" x="221" y="-99.8" font-family="Times,serif" font-size="14.00" fill="#000000">RangePipe</text>
</g>
<!-- RangePipe&#45;&gt;NgxPhoneSpinnerModule -->
<g id="edge4" class="edge">
<title>RangePipe&#45;&gt;NgxPhoneSpinnerModule</title>
<path fill="none" stroke="#000000" d="M243.1129,-122.1061C243.1129,-122.1061 243.1129,-140.991 243.1129,-140.991"/>
<polygon fill="#000000" stroke="#000000" points="239.613,-140.9909 243.1129,-150.991 246.613,-140.991 239.613,-140.9909"/>
</g>
<!-- NgxPhoneSpinnerComponent  -->
<g id="node7" class="node">
<title>NgxPhoneSpinnerComponent </title>
<polygon fill="#fb8072" stroke="#000000" points="464.9852,-252 277.0148,-252 277.0148,-216 464.9852,-216 464.9852,-252"/>
<text text-anchor="middle" x="371" y="-229.8" font-family="Times,serif" font-size="14.00" fill="#000000">NgxPhoneSpinnerComponent </text>
</g>
<!-- NgxPhoneSpinnerModule&#45;&gt;NgxPhoneSpinnerComponent  -->
<g id="edge5" class="edge">
<title>NgxPhoneSpinnerModule&#45;&gt;NgxPhoneSpinnerComponent </title>
<path fill="none" stroke="#000000" stroke-dasharray="5,2" d="M333.1794,-187.1061C333.1794,-187.1061 333.1794,-205.991 333.1794,-205.991"/>
<polygon fill="#000000" stroke="#000000" points="329.6794,-205.9909 333.1794,-215.991 336.6794,-205.991 329.6794,-205.9909"/>
</g>
<!-- RangePipe  -->
<g id="node8" class="node">
<title>RangePipe </title>
<polygon fill="#fb8072" stroke="#000000" points="259.1537,-252 178.8463,-252 178.8463,-216 259.1537,-216 259.1537,-252"/>
<text text-anchor="middle" x="219" y="-229.8" font-family="Times,serif" font-size="14.00" fill="#000000">RangePipe </text>
</g>
<!-- NgxPhoneSpinnerModule&#45;&gt;RangePipe  -->
<g id="edge6" class="edge">
<title>NgxPhoneSpinnerModule&#45;&gt;RangePipe </title>
<path fill="none" stroke="#000000" stroke-dasharray="5,2" d="M242.9879,-187.1061C242.9879,-187.1061 242.9879,-205.991 242.9879,-205.991"/>
<polygon fill="#000000" stroke="#000000" points="239.488,-205.9909 242.9879,-215.991 246.488,-205.991 239.488,-205.9909"/>
</g>
</g>
</svg>
