<?xml version="1.0" encoding="UTF-8" standalone="no"?>
<!DOCTYPE svg PUBLIC "-//W3C//DTD SVG 1.1//EN"
 "http://www.w3.org/Graphics/SVG/1.1/DTD/svg11.dtd">
<!-- Generated by graphviz version 2.40.1 (20161225.0304)
 -->
<!-- Title: dependencies Pages: 1 -->
<svg width="504pt" height="284pt"
 viewBox="0.00 0.00 504.00 284.00" xmlns="http://www.w3.org/2000/svg" xmlns:xlink="http://www.w3.org/1999/xlink">
<g id="graph0" class="graph" transform="scale(1 1) rotate(0) translate(4 280)">
<title>dependencies</title>
<polygon fill="#ffffff" stroke="transparent" points="-4,4 -4,-280 500,-280 500,4 -4,4"/>
<text text-anchor="start" x="227.0091" y="-42.4" font-family="sans-serif" font-weight="bold" font-size="14.00" fill="#000000">Legend</text>
<polygon fill="#ffffb3" stroke="transparent" points="14,-10 14,-30 34,-30 34,-10 14,-10"/>
<text text-anchor="start" x="37.629" y="-15.4" font-family="sans-serif" font-size="14.00" fill="#000000"> &#160;Declarations</text>
<polygon fill="#8dd3c7" stroke="transparent" points="127,-10 127,-30 147,-30 147,-10 127,-10"/>
<text text-anchor="start" x="150.7251" y="-15.4" font-family="sans-serif" font-size="14.00" fill="#000000"> &#160;Module</text>
<polygon fill="#80b1d3" stroke="transparent" points="213,-10 213,-30 233,-30 233,-10 213,-10"/>
<text text-anchor="start" x="236.7812" y="-15.4" font-family="sans-serif" font-size="14.00" fill="#000000"> &#160;Bootstrap</text>
<polygon fill="#fdb462" stroke="transparent" points="310,-10 310,-30 330,-30 330,-10 310,-10"/>
<text text-anchor="start" x="333.6732" y="-15.4" font-family="sans-serif" font-size="14.00" fill="#000000"> &#160;Providers</text>
<polygon fill="#fb8072" stroke="transparent" points="406,-10 406,-30 426,-30 426,-10 406,-10"/>
<text text-anchor="start" x="429.7258" y="-15.4" font-family="sans-serif" font-size="14.00" fill="#000000"> &#160;Exports</text>
<g id="clust1" class="cluster">
<title>cluster_NgxPhoneSpinnerModule</title>
<polygon fill="none" stroke="#000000" stroke-dasharray="1,5" points="89,-70 89,-268 407,-268 407,-70 89,-70"/>
</g>
<g id="clust2" class="cluster">
<title>cluster_NgxPhoneSpinnerModule_declarations</title>
<polygon fill="none" stroke="#000000" points="101,-78 101,-130 395,-130 395,-78 101,-78"/>
</g>
<g id="clust6" class="cluster">
<title>cluster_NgxPhoneSpinnerModule_exports</title>
<polygon fill="none" stroke="#000000" points="97,-208 97,-260 399,-260 399,-208 97,-208"/>
</g>
<!-- NgxPhoneSpinnerComponent -->
<g id="node1" class="node">
<title>NgxPhoneSpinnerComponent</title>
<polygon fill="#ffffb3" stroke="#000000" points="386.9846,-122 203.0154,-122 203.0154,-86 386.9846,-86 386.9846,-122"/>
<text text-anchor="middle" x="295" y="-99.8" font-family="Times,serif" font-size="14.00" fill="#000000">NgxPhoneSpinnerComponent</text>
</g>
<!-- NgxPhoneSpinnerModule -->
<g id="node3" class="node">
<title>NgxPhoneSpinnerModule</title>
<polygon fill="#8dd3c7" stroke="#000000" points="315.2021,-187 312.2021,-191 291.2021,-191 288.2021,-187 152.7979,-187 152.7979,-151 315.2021,-151 315.2021,-187"/>
<text text-anchor="middle" x="234" y="-164.8" font-family="Times,serif" font-size="14.00" fill="#000000">NgxPhoneSpinnerModule</text>
</g>
<!-- NgxPhoneSpinnerComponent&#45;&gt;NgxPhoneSpinnerModule -->
<g id="edge1" class="edge">
<title>NgxPhoneSpinnerComponent&#45;&gt;NgxPhoneSpinnerModule</title>
<path fill="none" stroke="#000000" d="M259.0544,-122.1061C259.0544,-122.1061 259.0544,-140.991 259.0544,-140.991"/>
<polygon fill="#000000" stroke="#000000" points="255.5544,-140.9909 259.0544,-150.991 262.5544,-140.991 255.5544,-140.9909"/>
</g>
<!-- RangePipe -->
<g id="node2" class="node">
<title>RangePipe</title>
<polygon fill="#ffffb3" stroke="#000000" points="185.1544,-122 108.8456,-122 108.8456,-86 185.1544,-86 185.1544,-122"/>
<text text-anchor="middle" x="147" y="-99.8" font-family="Times,serif" font-size="14.00" fill="#000000">RangePipe</text>
</g>
<!-- RangePipe&#45;&gt;NgxPhoneSpinnerModule -->
<g id="edge2" class="edge">
<title>RangePipe&#45;&gt;NgxPhoneSpinnerModule</title>
<path fill="none" stroke="#000000" d="M169.1129,-122.1061C169.1129,-122.1061 169.1129,-140.991 169.1129,-140.991"/>
<polygon fill="#000000" stroke="#000000" points="165.613,-140.9909 169.1129,-150.991 172.613,-140.991 165.613,-140.9909"/>
</g>
<!-- NgxPhoneSpinnerComponent  -->
<g id="node4" class="node">
<title>NgxPhoneSpinnerComponent </title>
<polygon fill="#fb8072" stroke="#000000" points="390.9852,-252 203.0148,-252 203.0148,-216 390.9852,-216 390.9852,-252"/>
<text text-anchor="middle" x="297" y="-229.8" font-family="Times,serif" font-size="14.00" fill="#000000">NgxPhoneSpinnerComponent </text>
</g>
<!-- NgxPhoneSpinnerModule&#45;&gt;NgxPhoneSpinnerComponent  -->
<g id="edge3" class="edge">
<title>NgxPhoneSpinnerModule&#45;&gt;NgxPhoneSpinnerComponent </title>
<path fill="none" stroke="#000000" stroke-dasharray="5,2" d="M259.1794,-187.1061C259.1794,-187.1061 259.1794,-205.991 259.1794,-205.991"/>
<polygon fill="#000000" stroke="#000000" points="255.6794,-205.9909 259.1794,-215.991 262.6794,-205.991 255.6794,-205.9909"/>
</g>
<!-- RangePipe  -->
<g id="node5" class="node">
<title>RangePipe </title>
<polygon fill="#fb8072" stroke="#000000" points="185.1537,-252 104.8463,-252 104.8463,-216 185.1537,-216 185.1537,-252"/>
<text text-anchor="middle" x="145" y="-229.8" font-family="Times,serif" font-size="14.00" fill="#000000">RangePipe </text>
</g>
<!-- NgxPhoneSpinnerModule&#45;&gt;RangePipe  -->
<g id="edge4" class="edge">
<title>NgxPhoneSpinnerModule&#45;&gt;RangePipe </title>
<path fill="none" stroke="#000000" stroke-dasharray="5,2" d="M168.9879,-187.1061C168.9879,-187.1061 168.9879,-205.991 168.9879,-205.991"/>
<polygon fill="#000000" stroke="#000000" points="165.488,-205.9909 168.9879,-215.991 172.488,-205.991 165.488,-205.9909"/>
</g>
</g>
</svg>
