<?xml version="1.0" encoding="UTF-8" standalone="no"?>
<!DOCTYPE svg PUBLIC "-//W3C//DTD SVG 1.1//EN"
 "http://www.w3.org/Graphics/SVG/1.1/DTD/svg11.dtd">
<!-- Generated by graphviz version 2.40.1 (20161225.0304)
 -->
<!-- Title: dependencies Pages: 1 -->
<svg width="504pt" height="284pt"
 viewBox="0.00 0.00 504.00 284.00" xmlns="http://www.w3.org/2000/svg" xmlns:xlink="http://www.w3.org/1999/xlink">
<g id="graph0" class="graph" transform="scale(1 1) rotate(0) translate(4 280)">
<title>dependencies</title>
<polygon fill="#ffffff" stroke="transparent" points="-4,4 -4,-280 500,-280 500,4 -4,4"/>
<text text-anchor="start" x="227.0091" y="-42.4" font-family="sans-serif" font-weight="bold" font-size="14.00" fill="#000000">Legend</text>
<polygon fill="#ffffb3" stroke="transparent" points="14,-10 14,-30 34,-30 34,-10 14,-10"/>
<text text-anchor="start" x="37.629" y="-15.4" font-family="sans-serif" font-size="14.00" fill="#000000"> &#160;Declarations</text>
<polygon fill="#8dd3c7" stroke="transparent" points="127,-10 127,-30 147,-30 147,-10 127,-10"/>
<text text-anchor="start" x="150.7251" y="-15.4" font-family="sans-serif" font-size="14.00" fill="#000000"> &#160;Module</text>
<polygon fill="#80b1d3" stroke="transparent" points="213,-10 213,-30 233,-30 233,-10 213,-10"/>
<text text-anchor="start" x="236.7812" y="-15.4" font-family="sans-serif" font-size="14.00" fill="#000000"> &#160;Bootstrap</text>
<polygon fill="#fdb462" stroke="transparent" points="310,-10 310,-30 330,-30 330,-10 310,-10"/>
<text text-anchor="start" x="333.6732" y="-15.4" font-family="sans-serif" font-size="14.00" fill="#000000"> &#160;Providers</text>
<polygon fill="#fb8072" stroke="transparent" points="406,-10 406,-30 426,-30 426,-10 406,-10"/>
<text text-anchor="start" x="429.7258" y="-15.4" font-family="sans-serif" font-size="14.00" fill="#000000"> &#160;Exports</text>
<g id="clust1" class="cluster">
<title>cluster_NgxBadPhoneSpinnerModule</title>
<polygon fill="none" stroke="#000000" stroke-dasharray="1,5" points="81.5,-70 81.5,-268 414.5,-268 414.5,-70 81.5,-70"/>
</g>
<g id="clust2" class="cluster">
<title>cluster_NgxBadPhoneSpinnerModule_declarations</title>
<polygon fill="none" stroke="#000000" points="89.5,-78 89.5,-130 406.5,-130 406.5,-78 89.5,-78"/>
</g>
<g id="clust6" class="cluster">
<title>cluster_NgxBadPhoneSpinnerModule_exports</title>
<polygon fill="none" stroke="#000000" points="134.5,-208 134.5,-260 360.5,-260 360.5,-208 134.5,-208"/>
</g>
<!-- NgxBadPhoneSpinnerComponent -->
<g id="node1" class="node">
<title>NgxBadPhoneSpinnerComponent</title>
<polygon fill="#ffffb3" stroke="#000000" points="398.5363,-122 192.4637,-122 192.4637,-86 398.5363,-86 398.5363,-122"/>
<text text-anchor="middle" x="295.5" y="-99.8" font-family="Times,serif" font-size="14.00" fill="#000000">NgxBadPhoneSpinnerComponent</text>
</g>
<!-- NgxBadPhoneSpinnerModule -->
<g id="node3" class="node">
<title>NgxBadPhoneSpinnerModule</title>
<polygon fill="#8dd3c7" stroke="#000000" points="339.7534,-187 336.7534,-191 315.7534,-191 312.7534,-187 155.2466,-187 155.2466,-151 339.7534,-151 339.7534,-187"/>
<text text-anchor="middle" x="247.5" y="-164.8" font-family="Times,serif" font-size="14.00" fill="#000000">NgxBadPhoneSpinnerModule</text>
</g>
<!-- NgxBadPhoneSpinnerComponent&#45;&gt;NgxBadPhoneSpinnerModule -->
<g id="edge1" class="edge">
<title>NgxBadPhoneSpinnerComponent&#45;&gt;NgxBadPhoneSpinnerModule</title>
<path fill="none" stroke="#000000" d="M266.0544,-122.1061C266.0544,-122.1061 266.0544,-140.991 266.0544,-140.991"/>
<polygon fill="#000000" stroke="#000000" points="262.5544,-140.9909 266.0544,-150.991 269.5544,-140.991 262.5544,-140.9909"/>
</g>
<!-- RangePipe -->
<g id="node2" class="node">
<title>RangePipe</title>
<polygon fill="#ffffb3" stroke="#000000" points="173.6544,-122 97.3456,-122 97.3456,-86 173.6544,-86 173.6544,-122"/>
<text text-anchor="middle" x="135.5" y="-99.8" font-family="Times,serif" font-size="14.00" fill="#000000">RangePipe</text>
</g>
<!-- RangePipe&#45;&gt;NgxBadPhoneSpinnerModule -->
<g id="edge2" class="edge">
<title>RangePipe&#45;&gt;NgxBadPhoneSpinnerModule</title>
<path fill="none" stroke="#000000" d="M164.4751,-122.1061C164.4751,-122.1061 164.4751,-140.991 164.4751,-140.991"/>
<polygon fill="#000000" stroke="#000000" points="160.9752,-140.9909 164.4751,-150.991 167.9752,-140.991 160.9752,-140.9909"/>
</g>
<!-- NgxBadPhoneSpinnerComponent  -->
<g id="node4" class="node">
<title>NgxBadPhoneSpinnerComponent </title>
<polygon fill="#fb8072" stroke="#000000" points="352.5358,-252 142.4642,-252 142.4642,-216 352.5358,-216 352.5358,-252"/>
<text text-anchor="middle" x="247.5" y="-229.8" font-family="Times,serif" font-size="14.00" fill="#000000">NgxBadPhoneSpinnerComponent </text>
</g>
<!-- NgxBadPhoneSpinnerModule&#45;&gt;NgxBadPhoneSpinnerComponent  -->
<g id="edge3" class="edge">
<title>NgxBadPhoneSpinnerModule&#45;&gt;NgxBadPhoneSpinnerComponent </title>
<path fill="none" stroke="#000000" stroke-dasharray="5,2" d="M247.5,-187.1061C247.5,-187.1061 247.5,-205.991 247.5,-205.991"/>
<polygon fill="#000000" stroke="#000000" points="244.0001,-205.9909 247.5,-215.991 251.0001,-205.991 244.0001,-205.9909"/>
</g>
</g>
</svg>
