<?xml version="1.0" encoding="UTF-8" standalone="no"?>
<!DOCTYPE svg PUBLIC "-//W3C//DTD SVG 1.1//EN"
 "http://www.w3.org/Graphics/SVG/1.1/DTD/svg11.dtd">
<!-- Generated by graphviz version 2.40.1 (20161225.0304)
 -->
<!-- Title: dependencies Pages: 1 -->
<svg width="504pt" height="284pt"
 viewBox="0.00 0.00 504.00 284.00" xmlns="http://www.w3.org/2000/svg" xmlns:xlink="http://www.w3.org/1999/xlink">
<g id="graph0" class="graph" transform="scale(1 1) rotate(0) translate(4 280)">
<title>dependencies</title>
<polygon fill="#ffffff" stroke="transparent" points="-4,4 -4,-280 500,-280 500,4 -4,4"/>
<text text-anchor="start" x="227.0091" y="-42.4" font-family="sans-serif" font-weight="bold" font-size="14.00" fill="#000000">Legend</text>
<polygon fill="#ffffb3" stroke="transparent" points="14,-10 14,-30 34,-30 34,-10 14,-10"/>
<text text-anchor="start" x="37.629" y="-15.4" font-family="sans-serif" font-size="14.00" fill="#000000"> &#160;Declarations</text>
<polygon fill="#8dd3c7" stroke="transparent" points="127,-10 127,-30 147,-30 147,-10 127,-10"/>
<text text-anchor="start" x="150.7251" y="-15.4" font-family="sans-serif" font-size="14.00" fill="#000000"> &#160;Module</text>
<polygon fill="#80b1d3" stroke="transparent" points="213,-10 213,-30 233,-30 233,-10 213,-10"/>
<text text-anchor="start" x="236.7812" y="-15.4" font-family="sans-serif" font-size="14.00" fill="#000000"> &#160;Bootstrap</text>
<polygon fill="#fdb462" stroke="transparent" points="310,-10 310,-30 330,-30 330,-10 310,-10"/>
<text text-anchor="start" x="333.6732" y="-15.4" font-family="sans-serif" font-size="14.00" fill="#000000"> &#160;Providers</text>
<polygon fill="#fb8072" stroke="transparent" points="406,-10 406,-30 426,-30 426,-10 406,-10"/>
<text text-anchor="start" x="429.7258" y="-15.4" font-family="sans-serif" font-size="14.00" fill="#000000"> &#160;Exports</text>
<g id="clust1" class="cluster">
<title>cluster_NgxBadPhoneSpinnerModule</title>
<polygon fill="none" stroke="#000000" stroke-dasharray="1,5" points="78,-70 78,-268 418,-268 418,-70 78,-70"/>
</g>
<g id="clust2" class="cluster">
<title>cluster_NgxBadPhoneSpinnerModule_declarations</title>
<polygon fill="none" stroke="#000000" points="89,-78 89,-130 406,-130 406,-78 89,-78"/>
</g>
<g id="clust6" class="cluster">
<title>cluster_NgxBadPhoneSpinnerModule_exports</title>
<polygon fill="none" stroke="#000000" points="86,-208 86,-260 410,-260 410,-208 86,-208"/>
</g>
<!-- NgxBadPhoneSpinnerComponent -->
<g id="node1" class="node">
<title>NgxBadPhoneSpinnerComponent</title>
<polygon fill="#ffffb3" stroke="#000000" points="398.0363,-122 191.9637,-122 191.9637,-86 398.0363,-86 398.0363,-122"/>
<text text-anchor="middle" x="295" y="-99.8" font-family="Times,serif" font-size="14.00" fill="#000000">NgxBadPhoneSpinnerComponent</text>
</g>
<!-- NgxBadPhoneSpinnerModule -->
<g id="node3" class="node">
<title>NgxBadPhoneSpinnerModule</title>
<polygon fill="#8dd3c7" stroke="#000000" points="327.2534,-187 324.2534,-191 303.2534,-191 300.2534,-187 142.7466,-187 142.7466,-151 327.2534,-151 327.2534,-187"/>
<text text-anchor="middle" x="235" y="-164.8" font-family="Times,serif" font-size="14.00" fill="#000000">NgxBadPhoneSpinnerModule</text>
</g>
<!-- NgxBadPhoneSpinnerComponent&#45;&gt;NgxBadPhoneSpinnerModule -->
<g id="edge1" class="edge">
<title>NgxBadPhoneSpinnerComponent&#45;&gt;NgxBadPhoneSpinnerModule</title>
<path fill="none" stroke="#000000" d="M259.5544,-122.1061C259.5544,-122.1061 259.5544,-140.991 259.5544,-140.991"/>
<polygon fill="#000000" stroke="#000000" points="256.0544,-140.9909 259.5544,-150.991 263.0544,-140.991 256.0544,-140.9909"/>
</g>
<!-- RangePipe -->
<g id="node2" class="node">
<title>RangePipe</title>
<polygon fill="#ffffb3" stroke="#000000" points="173.1544,-122 96.8456,-122 96.8456,-86 173.1544,-86 173.1544,-122"/>
<text text-anchor="middle" x="135" y="-99.8" font-family="Times,serif" font-size="14.00" fill="#000000">RangePipe</text>
</g>
<!-- RangePipe&#45;&gt;NgxBadPhoneSpinnerModule -->
<g id="edge2" class="edge">
<title>RangePipe&#45;&gt;NgxBadPhoneSpinnerModule</title>
<path fill="none" stroke="#000000" d="M157.9751,-122.1061C157.9751,-122.1061 157.9751,-140.991 157.9751,-140.991"/>
<polygon fill="#000000" stroke="#000000" points="154.4752,-140.9909 157.9751,-150.991 161.4752,-140.991 154.4752,-140.9909"/>
</g>
<!-- NgxBadPhoneSpinnerComponent  -->
<g id="node4" class="node">
<title>NgxBadPhoneSpinnerComponent </title>
<polygon fill="#fb8072" stroke="#000000" points="402.0358,-252 191.9642,-252 191.9642,-216 402.0358,-216 402.0358,-252"/>
<text text-anchor="middle" x="297" y="-229.8" font-family="Times,serif" font-size="14.00" fill="#000000">NgxBadPhoneSpinnerComponent </text>
</g>
<!-- NgxBadPhoneSpinnerModule&#45;&gt;NgxBadPhoneSpinnerComponent  -->
<g id="edge3" class="edge">
<title>NgxBadPhoneSpinnerModule&#45;&gt;NgxBadPhoneSpinnerComponent </title>
<path fill="none" stroke="#000000" stroke-dasharray="5,2" d="M259.6794,-187.1061C259.6794,-187.1061 259.6794,-205.991 259.6794,-205.991"/>
<polygon fill="#000000" stroke="#000000" points="256.1794,-205.9909 259.6794,-215.991 263.1794,-205.991 256.1794,-205.9909"/>
</g>
<!-- RangePipe  -->
<g id="node5" class="node">
<title>RangePipe </title>
<polygon fill="#fb8072" stroke="#000000" points="174.1537,-252 93.8463,-252 93.8463,-216 174.1537,-216 174.1537,-252"/>
<text text-anchor="middle" x="134" y="-229.8" font-family="Times,serif" font-size="14.00" fill="#000000">RangePipe </text>
</g>
<!-- NgxBadPhoneSpinnerModule&#45;&gt;RangePipe  -->
<g id="edge4" class="edge">
<title>NgxBadPhoneSpinnerModule&#45;&gt;RangePipe </title>
<path fill="none" stroke="#000000" stroke-dasharray="5,2" d="M158.3501,-187.1061C158.3501,-187.1061 158.3501,-205.991 158.3501,-205.991"/>
<polygon fill="#000000" stroke="#000000" points="154.8502,-205.9909 158.3501,-215.991 161.8502,-205.991 154.8502,-205.9909"/>
</g>
</g>
</svg>
